<?xml version="1.0" standalone="no"?>
<!DOCTYPE svg PUBLIC "-//W3C//DTD SVG 20010904//EN"
 "http://www.w3.org/TR/2001/REC-SVG-20010904/DTD/svg10.dtd">
<svg version="1.0" xmlns="http://www.w3.org/2000/svg"
 width="460.000000pt" height="460.000000pt" viewBox="0 0 460.000000 460.000000"
 preserveAspectRatio="xMidYMid meet">
<metadata>
Created by potrace 1.11, written by Peter Selinger 2001-2013
</metadata>
<g transform="translate(0.000000,460.000000) scale(0.100000,-0.100000)"
fill="#000000" stroke="none">
<path d="M1455 3976 c-62 -20 -97 -41 -136 -83 -43 -45 -845 -1435 -871 -1508
-22 -63 -22 -117 0 -180 29 -81 828 -1464 875 -1512 22 -23 63 -52 91 -65 l51
-23 870 0 870 0 51 23 c28 13 69 42 91 65 47 48 846 1431 875 1512 22 63 22
117 0 180 -28 81 -828 1464 -875 1512 -22 23 -63 52 -91 65 l-51 23 -855 2
c-670 1 -864 -1 -895 -11z m1220 -624 c314 -86 478 -287 492 -603 7 -141 -11
-234 -64 -342 -45 -90 -160 -209 -250 -258 -35 -19 -63 -38 -63 -43 0 -4 108
-203 240 -442 132 -238 240 -436 240 -440 0 -4 -10 -18 -22 -31 -21 -22 -27
-23 -187 -23 l-166 1 -230 429 -229 430 -218 0 -218 0 0 -412 c0 -369 -2 -413
-17 -430 -14 -16 -33 -18 -161 -18 -136 0 -147 1 -169 22 l-23 21 0 1061 0
1060 22 23 23 24 460 -3 c437 -4 464 -5 540 -26z"/>
<path d="M2000 2704 l0 -366 248 5 c303 6 362 20 460 111 123 113 130 370 14
498 -85 94 -184 118 -494 118 l-228 0 0 -366z"/>
</g>
</svg>
